HIERARCHY
ROOT Hips
{
     OFFSET 17.13590 97.10920 25.49310
     CHANNELS 6 Xposition Yposition Zposition Zrotation Xrotation Yrotation
     JOINT Spine
     {
          OFFSET 0.00000 11.89050 -0.00000
          CHANNELS 3 Zrotation Xrotation Yrotation
          JOINT Spine1
          {
               OFFSET 0.00000 25.65740 0.12766
               CHANNELS 3 Zrotation Xrotation Yrotation
               JOINT HEad
               {
                    OFFSET 0.00000 8.73416 0.01134
                    CHANNELS 3 Zrotation Xrotation Yrotation
                    End Site
                    {
                         OFFSET -0.29000 12.77420 2.51395
                    }
               }
               JOINT LeftShoulder1
               {
                    OFFSET 8.99000 -0.36225 -0.22000
                    CHANNELS 3 Zrotation Xrotation Yrotation
                    JOINT LeftArm
                    {
                         OFFSET 10.28270 -0.00338 0.32212
                         CHANNELS 3 Zrotation Xrotation Yrotation
                         JOINT LeftForeArm
                         {
                              OFFSET 32.76690 0.09914 -1.42434
                              CHANNELS 3 Zrotation Xrotation Yrotation
                              JOINT LeftHand
                              {
                                   OFFSET 27.56430 0.08536 1.02216
                                   CHANNELS 3 Zrotation Xrotation Yrotation
                                   End Site
                                   {
                                        OFFSET 16.74430 -0.60000 1.50291
                                   }
                              }
                         }
                    }
               }
               JOINT RightShoulder
               {
                    OFFSET -8.99000 -0.36225 -0.22000
                    CHANNELS 3 Zrotation Xrotation Yrotation
                    JOINT RightArm
                    {
                         OFFSET -10.28270 -0.00338 0.32212
                         CHANNELS 3 Zrotation Xrotation Yrotation
                         JOINT RightForeArm
                         {
                              OFFSET -32.89710 0.09914 -1.42434
                              CHANNELS 3 Zrotation Xrotation Yrotation
                              JOINT RightHand
                              {
                                   OFFSET -27.49210 0.08536 1.02216
                                   CHANNELS 3 Zrotation Xrotation Yrotation
                                   End Site
                                   {
                                        OFFSET -16.63120 -0.60000 1.50291
                                   }
                              }
                         }
                    }
               }
          }
     }
     JOINT LeftUpLeg
     {
          OFFSET 8.94580 -8.66707 0.10165
          CHANNELS 3 Zrotation Xrotation Yrotation
          JOINT LeftLeg
          {
               OFFSET 0.00000 -44.42270 1.37270
               CHANNELS 3 Zrotation Xrotation Yrotation
               JOINT LeftFoot
               {
                    OFFSET -0.25355 -42.09240 -1.46059
                    CHANNELS 3 Zrotation Xrotation Yrotation
                    JOINT LeftToes
                    {
                         OFFSET -0.04000 -4.41509 8.49910
                         CHANNELS 3 Zrotation Xrotation Yrotation
                         End Site
                         {
                              OFFSET 0.08000 -0.04745 9.77979
                         }
                    }
               }
          }
     }
     JOINT RightUpLeg
     {
          OFFSET -8.94580 -8.66707 0.10165
          CHANNELS 3 Zrotation Xrotation Yrotation
          JOINT RightLeg
          {
               OFFSET 0.00000 -44.42270 1.37270
               CHANNELS 3 Zrotation Xrotation Yrotation
               JOINT RightFoot
               {
                    OFFSET 0.25355 -42.09240 -1.46059
                    CHANNELS 3 Zrotation Xrotation Yrotation
                    JOINT RightToes
                    {
                         OFFSET 0.04000 -4.41509 8.49910
                         CHANNELS 3 Zrotation Xrotation Yrotation
                         End Site
                         {
                              OFFSET -0.08000 -0.13745 9.77979
                         }
                    }
               }
          }
     }
}
MOTION
Frames: 14
Frame Time: 0.01667
17.13590 97.10920 25.49310 -1.52688 -5.00347 -46.08570 1.29913 3.72179 2.51395 0.51809 7.64286 5.05430 -7.88211 12.81550 26.67860 -0.00000 -0.00000 0.00000 -80.35690 -40.51620 -81.34280 -16.72990 29.66100 -79.87090 5.55594 9.67997 -0.87718 22.74830 2.09586 6.12141 57.28860 -30.62550 67.56090 23.36210 42.20210 97.17180 -5.55712 9.68432 0.87760 9.50990 -13.12440 5.00364 4.24952 12.50630 -18.79480 -16.77680 -3.71880 0.58972 0.02188 2.65171 -0.37363 -10.33960 4.18813 -2.56812 4.07837 26.14310 -7.89181 1.35644 -22.00360 -0.09355 -5.19962 -6.56042 1.58051 
17.16100 97.02500 25.09220 -1.83379 -5.01117 -46.02670 1.63172 3.77604 2.59989 0.93954 7.78389 5.22127 -9.21269 13.10890 27.79890 -0.00000 -0.00000 0.00000 -81.89380 -41.12110 -82.01280 -16.91620 30.03060 -80.12440 5.55594 9.67997 -0.87718 22.32480 2.04557 6.04257 57.81960 -29.76380 68.36360 23.28360 42.17050 96.84910 -5.55712 9.68432 0.87760 9.93241 -13.11750 5.14490 4.26632 12.54210 -19.07090 -17.24540 -3.90094 0.57971 0.00199 3.42432 -0.36660 -10.35540 4.20202 -2.70767 4.87751 26.28520 -8.20201 0.85536 -21.41570 -0.15884 -6.32519 -7.87167 1.96706 
17.16550 96.93380 24.66970 -2.16820 -5.00184 -45.88060 1.94570 3.82491 2.66177 1.37273 7.91086 5.33653 -10.37620 13.43030 28.77820 -0.00000 -0.00000 0.00000 -83.53190 -41.60050 -82.74140 -17.16330 30.47650 -80.33630 5.55594 9.67997 -0.87718 22.09870 2.02594 6.02915 58.06930 -29.00990 69.04710 23.13880 42.08250 96.55990 -5.55712 9.68432 0.87760 10.40560 -13.11870 5.26406 4.26524 12.55680 -19.40890 -17.74020 -4.08025 0.56945 -0.02591 4.26439 -0.33504 -10.39550 4.22888 -2.80973 5.92411 26.50770 -8.59731 0.39388 -21.19020 -0.21519 -6.98566 -8.57760 2.35470 
17.14020 96.83510 24.23500 -2.48322 -5.03750 -45.62830 2.23313 3.84596 2.69541 1.75635 7.98217 5.40189 -11.32180 13.82060 29.61800 -0.00000 -0.00000 0.00000 -84.95680 -41.87830 -83.29610 -17.41990 30.83430 -80.56480 5.55594 9.67997 -0.87718 22.04830 2.02964 6.05958 58.05800 -28.38040 69.54930 22.95140 41.95200 96.31510 -5.55712 9.68432 0.87760 10.83830 -13.08930 5.33059 4.23831 12.49840 -19.79040 -18.24260 -4.23114 0.56224 -0.08695 5.09746 -0.18054 -10.37830 4.29250 -2.99060 6.85891 26.81140 -8.87082 -0.18317 -21.37850 -0.28700 -7.05990 -8.60953 2.51582 
17.08220 96.73620 23.79860 -2.74935 -5.15474 -45.26870 2.50855 3.82147 2.69645 2.06015 7.96772 5.41822 -12.04450 14.36300 30.32330 -0.00000 -0.00000 0.00000 -86.05440 -41.96700 -83.58560 -17.65580 31.07870 -80.83500 5.55594 9.67997 -0.87718 22.04600 2.03709 6.09110 57.89720 -27.81970 69.86590 22.71030 41.76070 96.11300 -5.55712 9.68432 0.87760 11.15960 -12.98630 5.33661 4.19968 12.29770 -20.20890 -18.70650 -4.30254 0.56518 -0.19569 5.79264 0.15413 -10.22520 4.37942 -3.29974 7.38846 27.20530 -8.99531 -0.90487 -21.82340 -0.38286 -6.72633 -8.22706 2.37800 
16.99150 96.64370 23.36860 -2.95973 -5.34634 -44.81860 2.78142 3.74702 2.66066 2.28482 7.86078 5.37821 -12.57060 15.12610 30.91180 -0.00000 -0.00000 0.00000 -86.91340 -41.95890 -83.68030 -17.87050 31.30800 -81.14300 5.55594 9.67997 -0.87718 22.02290 2.04054 6.11241 57.65050 -27.26770 70.03220 22.39420 41.48450 95.94090 -5.55712 9.68432 0.87760 11.36080 -12.80570 5.29347 4.15434 11.94160 -20.66900 -19.04990 -4.27242 0.58042 -0.34898 6.27179 0.65936 -9.89514 4.45257 -3.67435 7.42825 27.68780 -9.09999 -1.65568 -22.35490 -0.49045 -6.21877 -7.71740 2.00153 
16.87270 96.55720 22.94980 -3.12878 -5.57859 -44.28710 3.04250 3.64118 2.58355 2.44876 7.69509 5.26277 -12.94690 16.05400 31.40110 -0.00000 -0.00000 0.00000 -87.55090 -41.91680 -83.63360 -18.04820 31.51480 -81.51960 5.55594 9.67997 -0.87718 22.01790 2.04673 6.13958 57.31140 -26.69820 70.10590 22.01520 41.13540 95.78440 -5.55712 9.68432 0.87760 11.47470 -12.58900 5.20803 4.10946 11.48990 -21.18060 -19.21880 -4.15545 0.60468 -0.52283 6.53578 1.25142 -9.40556 4.49870 -4.00949 7.10489 28.22140 -9.34907 -2.29947 -22.83670 -0.58938 -5.75003 -7.30732 1.52447 
16.73690 96.47040 22.54320 -3.28114 -5.81908 -43.67890 3.27188 3.53805 2.47032 2.57278 7.53227 5.06793 -13.22150 16.97490 31.78770 -0.00000 -0.00000 0.00000 -88.05470 -41.86720 -83.56490 -18.19900 31.71410 -81.96380 5.55594 9.67997 -0.87718 22.06920 2.05865 6.17339 56.89630 -26.11560 70.14200 21.61880 40.76130 95.64390 -5.55712 9.68432 0.87760 11.53420 -12.38850 5.08571 4.09312 11.02230 -21.74860 -19.22830 -3.96079 0.63679 -0.67931 6.58098 1.80439 -8.83490 4.54344 -4.21783 6.68171 28.73740 -9.86963 -2.80598 -23.15820 -0.66940 -5.50257 -7.16430 1.10985 
16.59960 96.37750 22.14860 -3.43817 -6.04544 -43.03920 3.45128 3.46163 2.35088 2.67253 7.41418 4.84500 -13.42050 17.75350 32.04760 -0.00000 -0.00000 0.00000 -88.49750 -41.78770 -83.55410 -18.34460 31.92510 -82.44290 5.55594 9.67997 -0.87718 22.17100 2.07311 6.20207 56.44250 -25.57040 70.14700 21.25860 40.41780 95.53550 -5.55712 9.68432 0.87760 11.56450 -12.23160 4.98594 4.14843 10.59680 -22.38550 -19.15900 -3.70583 0.67598 -0.79049 6.42188 2.22642 -8.29199 4.61233 -4.23654 6.43692 29.17640 -10.71850 -3.22207 -23.27760 -0.73208 -5.56743 -7.33984 0.89843 
16.47180 96.27900 21.76890 -3.61193 -6.24329 -42.45310 3.57511 3.41490 2.26819 2.75964 7.34366 4.68098 -13.55040 18.37550 32.16470 -0.00000 -0.00000 0.00000 -88.88190 -41.64450 -83.58360 -18.49950 32.15310 -82.91810 5.55594 9.67997 -0.87718 22.31900 2.09026 6.22746 55.95430 -25.14570 70.08620 20.97290 40.14560 95.47030 -5.55712 9.68432 0.87760 11.59200 -12.11290 5.01669 4.30877 10.24230 -23.11960 -19.13790 -3.47971 0.71196 -0.86752 6.24611 2.53207 -7.86258 4.71014 -4.05042 6.53550 29.50390 -11.87160 -3.58881 -23.19760 -0.78062 -5.97057 -7.82384 0.98498 
16.35260 96.18160 21.40910 -3.79648 -6.41161 -41.96390 3.65847 3.38770 2.23975 2.84088 7.30293 4.61882 -13.61620 18.87980 32.15760 -0.00000 -0.00000 0.00000 -89.16700 -41.43360 -83.58900 -18.66640 32.38820 -83.35560 5.55594 9.67997 -0.87718 22.50410 2.11143 6.25772 55.43300 -24.87480 69.93760 20.76980 39.96150 95.44490 -5.55712 9.68432 0.87760 11.63510 -12.00980 5.20204 4.55299 9.94775 -23.93290 -19.27530 -3.40530 0.72931 -0.95365 6.38191 2.81836 -7.57822 4.84038 -3.74343 6.96529 29.69120 -13.23790 -3.97068 -22.85870 -0.81936 -6.76951 -8.69726 1.36631 
16.23280 96.09180 21.07360 -3.96134 -6.56353 -41.53790 3.73046 3.36396 2.24461 2.91414 7.26701 4.62502 -13.63300 19.29160 32.07600 -0.00000 -0.00000 0.00000 -89.30930 -41.18210 -83.52000 -18.82990 32.60730 -83.73270 5.55594 9.67997 -0.87718 22.68890 2.13375 6.29221 54.91490 -24.70250 69.70990 20.63030 39.85910 95.44400 -5.55712 9.68432 0.87760 11.69150 -11.90710 5.41845 4.79476 9.67153 -24.70840 -19.60060 -3.51812 0.72297 -1.07888 7.02047 3.14918 -7.42232 5.00143 -3.48019 7.56217 29.73380 -14.67250 -4.46311 -22.16450 -0.85339 -8.00760 -10.08880 1.88668 
16.10580 96.01000 20.76320 -4.07416 -6.71340 -41.13510 3.81375 3.33198 2.25318 2.97636 7.21836 4.64416 -13.62990 19.61190 31.96710 -0.00000 -0.00000 0.00000 -89.29680 -40.92730 -83.36920 -18.95870 32.78180 -84.04300 5.55594 9.67997 -0.87718 22.80460 2.14866 6.31729 54.47090 -24.53130 69.44340 20.52570 39.81420 95.44070 -5.55712 9.68432 0.87760 11.74840 -11.80220 5.52783 4.95258 9.37947 -25.29940 -20.07660 -3.73438 0.70376 -1.22670 8.04600 3.47390 -7.35214 5.16437 -3.38946 8.12139 29.69000 -16.01150 -5.09728 -21.12680 -0.88031 -9.59936 -11.97330 2.31824 
15.97390 95.93170 20.47370 -4.13470 -6.86735 -40.76640 3.91290 3.29626 2.25427 3.03665 7.16591 4.65239 -13.64740 19.81020 31.86070 -0.00000 -0.00000 0.00000 -89.17490 -40.70500 -83.17740 -19.03000 32.89900 -84.29550 5.55594 9.67997 -0.87718 22.76720 2.14389 6.30941 54.19050 -24.27690 69.21050 20.42830 39.79270 95.40380 -5.55712 9.68432 0.87760 11.79850 -11.68740 5.51422 5.02106 9.05989 -25.65240 -20.63410 -3.92869 0.68931 -1.34897 9.14784 3.68202 -7.31767 5.28695 -3.49046 8.51206 29.66640 -17.10770 -5.79646 -19.94760 -0.89412 -11.29410 -14.05480 2.52210 
